<?xml version="1.0" encoding="UTF-8" standalone="no"?>
<!-- Created with Inkscape (http://www.inkscape.org/) -->

<svg
   xmlns:dc="http://purl.org/dc/elements/1.1/"
   xmlns:cc="http://creativecommons.org/ns#"
   xmlns:rdf="http://www.w3.org/1999/02/22-rdf-syntax-ns#"
   xmlns:svg="http://www.w3.org/2000/svg"
   xmlns="http://www.w3.org/2000/svg"
   xmlns:sodipodi="http://sodipodi.sourceforge.net/DTD/sodipodi-0.dtd"
   xmlns:inkscape="http://www.inkscape.org/namespaces/inkscape"
   id="svg2"
   version="1.1"
   inkscape:version="0.48.4 r9939"
   width="665.1625"
   height="496.225"
   xml:space="preserve"
   sodipodi:docname="BCMC_consumer_logo_256px.svg"><metadata
     id="metadata8"><rdf:RDF><cc:Work
         rdf:about=""><dc:format>image/svg+xml</dc:format><dc:type
           rdf:resource="http://purl.org/dc/dcmitype/StillImage" /><dc:title></dc:title></cc:Work></rdf:RDF></metadata><defs
     id="defs6"><clipPath
       clipPathUnits="userSpaceOnUse"
       id="clipPath22"><path
         d="m 705.398,704.871 3912.14,0 0,2560 -3912.14,0 0,-2560 z"
         id="path24" /></clipPath></defs><sodipodi:namedview
     pagecolor="#ffffff"
     bordercolor="#666666"
     borderopacity="1"
     objecttolerance="10"
     gridtolerance="10"
     guidetolerance="10"
     inkscape:pageopacity="0"
     inkscape:pageshadow="2"
     inkscape:window-width="921"
     inkscape:window-height="587"
     id="namedview4"
     showgrid="false"
     inkscape:zoom="0.83228373"
     inkscape:cx="332.58124"
     inkscape:cy="248.1125"
     inkscape:window-x="301"
     inkscape:window-y="126"
     inkscape:window-maximized="0"
     inkscape:current-layer="g10" /><g
     id="g10"
     inkscape:groupmode="layer"
     inkscape:label="ink_ext_XXXXXX"
     transform="matrix(1.25,0,0,-1.25,0,496.225)"><path
       inkscape:connector-curvature="0"
       id="path26"
       style="fill:#000000;fill-opacity:1;fill-rule:nonzero;stroke:none"
       d="m 114.87,250.043 14.559,0 c 9.665,0 14.437,6.362 14.437,12.295 0,4.406 -2.508,8.32 -7.402,9.666 l 0,0.122 c 3.059,1.713 4.588,4.955 4.588,8.014 0,5.077 -3.915,10.216 -12.663,10.216 l -13.519,0 0,-40.313 z m 9.359,7.585 0,8.992 4.711,0 c 3.486,0 5.567,-1.529 5.567,-4.22 0,-3.242 -1.958,-4.772 -6.424,-4.772 l -3.854,0 z m 0,16.578 0,8.503 2.57,0 c 3.486,0 5.138,-1.958 5.138,-4.343 0,-2.202 -1.652,-4.16 -4.893,-4.16 l -2.815,0 z m 42.821,-24.163 7.585,0 c -0.489,1.591 -0.489,3.915 -0.489,5.688 l 0,12.969 c 0,7.036 -3.671,11.011 -12.602,11.011 -4.588,0 -8.503,-1.101 -11.929,-2.813 l 2.876,-5.812 c 2.079,1.101 4.893,1.774 7.341,1.774 3.119,0 5.077,-1.101 5.077,-3.792 l 0,-0.306 -4.588,-0.183 c -2.937,-0.123 -5.567,-0.673 -7.647,-1.775 -2.998,-1.59 -4.833,-3.976 -4.833,-7.891 0,-5.566 4.161,-9.482 9.849,-9.482 3.609,0 6.117,1.346 8.075,3.059 l 1.285,-2.447 z m -2.141,12.908 0,-5.384 c -0.673,-0.428 -2.203,-1.04 -4.221,-1.04 -2.202,0 -3.609,0.979 -3.609,2.998 0,1.223 0.427,1.958 1.284,2.508 0.796,0.489 1.958,0.734 3.426,0.795 l 3.12,0.123 z m 15.109,-12.908 9.236,0 0,19.575 c 1.713,1.346 3.977,2.141 5.873,2.141 3.426,0 3.915,-2.569 3.915,-5.567 l 0,-16.149 9.237,0 0,18.902 c 0,8.931 -5.077,10.766 -9.726,10.766 -3.548,0 -6.79,-1.406 -9.727,-3.67 l -0.917,2.936 -7.891,0 0,-28.934 z m 48.081,-0.612 c 4.221,0 8.075,1.224 10.522,2.997 l -2.57,6.24 c -2.201,-1.223 -4.16,-1.957 -6.606,-1.957 -4.343,0 -7.219,2.691 -7.219,7.707 0,4.465 2.754,8.014 7.586,8.014 2.814,0 5.016,-0.856 7.157,-2.508 l 0,7.647 c -1.468,0.979 -4.098,2.14 -8.258,2.14 -8.381,0 -15.905,-5.995 -15.905,-15.354 0,-8.564 5.506,-14.926 15.293,-14.926 m 27.956,0 c 8.993,0 15.232,6.362 15.232,15.171 0,8.809 -6.239,15.109 -15.232,15.109 -8.992,0 -15.232,-6.3 -15.232,-15.109 0,-8.809 6.24,-15.171 15.232,-15.171 m 0,7.28 c -4.098,0 -5.812,3.426 -5.812,7.891 0,4.466 1.714,7.83 5.812,7.83 4.099,0 5.811,-3.364 5.811,-7.83 0,-4.465 -1.712,-7.891 -5.811,-7.891 m 19.758,-6.668 9.238,0 0,19.575 c 1.713,1.346 3.976,2.141 5.872,2.141 3.425,0 3.915,-2.569 3.915,-5.567 l 0,-16.149 9.237,0 0,18.902 c 0,8.931 -5.078,10.766 -9.727,10.766 -3.547,0 -6.789,-1.406 -9.726,-3.67 l -0.916,2.936 -7.893,0 0,-28.934 z m 46.492,-0.612 c 2.936,0 6.973,0.734 9.237,2.263 l -2.57,6.24 c -1.1,-0.673 -2.692,-1.223 -4.221,-1.223 -1.835,0 -2.69,0.917 -2.69,3.67 l 0,11.5 6.728,0 2.08,7.096 -8.808,0 0,9.482 -9.238,-2.63 0,-6.852 -5.444,0 0,-7.096 5.444,0 0,-13.947 c 0,-5.261 3.67,-8.503 9.482,-8.503 m 30.402,0.612 7.586,0 c -0.489,1.591 -0.489,3.915 -0.489,5.688 l 0,12.969 c 0,7.036 -3.671,11.011 -12.603,11.011 -4.587,0 -8.502,-1.101 -11.928,-2.813 l 2.875,-5.812 c 2.08,1.101 4.894,1.774 7.34,1.774 3.121,0 5.078,-1.101 5.078,-3.792 l 0,-0.306 -4.587,-0.183 c -2.937,-0.123 -5.567,-0.673 -7.648,-1.775 -2.997,-1.59 -4.832,-3.976 -4.832,-7.891 0,-5.566 4.16,-9.482 9.849,-9.482 3.608,0 6.116,1.346 8.075,3.059 l 1.284,-2.447 z m -2.141,12.908 0,-5.384 c -0.672,-0.428 -2.202,-1.04 -4.22,-1.04 -2.203,0 -3.61,0.979 -3.61,2.998 0,1.223 0.428,1.958 1.284,2.508 0.796,0.489 1.959,0.734 3.427,0.795 l 3.119,0.123 z m 29.362,-13.52 c 4.222,0 8.075,1.224 10.522,2.997 l -2.569,6.24 c -2.202,-1.223 -4.16,-1.957 -6.607,-1.957 -4.343,0 -7.219,2.691 -7.219,7.707 0,4.465 2.754,8.014 7.586,8.014 2.814,0 5.017,-0.856 7.158,-2.508 l 0,7.647 c -1.469,0.979 -4.099,2.14 -8.259,2.14 -8.38,0 -15.905,-5.995 -15.905,-15.354 0,-8.564 5.505,-14.926 15.293,-14.926 m 26.427,0 c 2.936,0 6.973,0.734 9.237,2.263 l -2.57,6.24 c -1.101,-0.673 -2.691,-1.223 -4.22,-1.223 -1.836,0 -2.692,0.917 -2.692,3.67 l 0,11.5 6.728,0 2.08,7.096 -8.808,0 0,9.482 -9.237,-2.63 0,-6.852 -5.444,0 0,-7.096 5.444,0 0,-13.947 c 0,-5.261 3.671,-8.503 9.482,-8.503" /><path
       inkscape:connector-curvature="0"
       id="path28"
       style="fill:#000000;fill-opacity:1;fill-rule:nonzero;stroke:none"
       d="m 114.785,107.219 9.199,0 0,20.503 c 0,1.083 0,2.646 -0.06,3.969 l 0.12,0 c 0.842,-1.504 1.804,-2.706 2.646,-3.849 l 7.335,-10.1 4.029,0 6.433,9.74 c 0.661,1.022 2.285,3.367 2.646,4.209 l 0.06,0 c -0.06,-1.202 -0.06,-2.826 -0.06,-4.269 l 0,-20.203 9.198,0 0,39.624 -8.356,0 -8.899,-13.529 c -1.203,-1.864 -2.165,-3.547 -2.886,-4.99 l -0.12,0 c -0.903,1.563 -1.865,3.006 -3.067,4.689 l -9.921,13.83 -8.297,0 0,-39.624 z m 48.641,0 9.079,0 0,28.44 -9.079,0 0,-28.44 z m 4.57,31.807 c 3.066,0 5.411,2.405 5.411,5.231 0,2.946 -2.345,5.171 -5.411,5.171 -3.067,0 -5.411,-2.345 -5.411,-5.171 0,-2.946 2.344,-5.231 5.411,-5.231 m 8.177,-29.401 c 2.705,-1.684 6.854,-3.007 11.785,-3.007 6.312,0 12.265,2.465 12.265,9.139 0,10.102 -13.408,8.718 -13.408,11.965 0,1.083 0.902,1.684 3.127,1.684 3.126,0 6.072,-0.902 8.778,-1.984 l 0,7.515 c -2.585,0.902 -5.712,1.444 -9.139,1.444 -7.035,0 -11.605,-3.608 -11.605,-9.079 0,-9.56 13.409,-7.937 13.409,-11.785 0,-1.443 -1.684,-1.924 -4.27,-1.924 -2.645,0 -5.711,0.902 -8.177,2.525 l -2.765,-6.493 z m 40.885,-3.007 c 2.886,0 6.855,0.721 9.079,2.225 l -2.525,6.133 c -1.083,-0.662 -2.646,-1.202 -4.149,-1.202 -1.804,0 -2.645,0.9 -2.645,3.607 l 0,11.304 6.614,0 2.044,6.974 -8.658,0 0,9.32 -9.079,-2.587 0,-6.733 -5.352,0 0,-6.974 5.352,0 0,-13.709 c 0,-5.172 3.607,-8.358 9.319,-8.358 m 38.3,12.085 0,2.105 c 0,9.681 -4.99,15.573 -13.529,15.573 -8.958,0 -13.588,-6.735 -13.588,-15.273 0,-7.275 4.089,-14.49 15.392,-14.49 3.728,0 7.336,0.721 10.702,2.766 l -2.645,6.133 c -2.104,-1.203 -4.329,-1.924 -7.335,-1.924 -3.848,0 -6.854,1.623 -7.035,5.11 l 18.038,0 z m -18.158,6.013 c 0,2.525 1.443,4.93 4.449,4.93 3.307,0 4.569,-2.464 4.629,-4.93 l -9.078,0 z m 22.547,-17.497 9.079,0 0,19.541 c 1.984,1.503 3.247,1.925 4.93,1.925 0.722,0 2.226,-0.181 3.848,-1.203 l 3.187,7.455 c -1.443,1.022 -3.246,1.444 -4.69,1.444 -3.186,0 -5.472,-1.624 -7.696,-3.608 l -0.961,2.886 -7.697,0 0,-28.44 z m 63.552,9.982 c -2.946,-1.744 -5.831,-2.946 -9.981,-2.946 -7.455,0 -12.145,5.11 -12.145,12.505 0,6.795 3.728,12.867 12.266,12.867 3.728,0 7.275,-0.902 10.582,-2.645 l 0,8.418 c -2.766,1.142 -6.373,1.863 -10.823,1.863 -13.407,0 -21.825,-9.259 -21.825,-20.623 0,-11.605 7.095,-20.022 20.803,-20.022 4.209,0 8.779,0.721 13.65,3.367 l -2.527,7.216 z m 24.712,-9.982 7.456,0 c -0.481,1.564 -0.481,3.849 -0.481,5.593 l 0,12.746 c 0,6.914 -3.608,10.823 -12.387,10.823 -4.509,0 -8.357,-1.083 -11.723,-2.766 l 2.825,-5.713 c 2.045,1.083 4.811,1.744 7.215,1.744 3.066,0 4.99,-1.081 4.99,-3.727 l 0,-0.3 -4.509,-0.181 c -2.885,-0.121 -5.472,-0.662 -7.515,-1.744 -2.946,-1.563 -4.75,-3.909 -4.75,-7.756 0,-5.471 4.088,-9.32 9.68,-9.32 3.546,0 6.012,1.323 7.936,3.007 l 1.263,-2.406 z m -2.105,12.687 0,-5.291 c -0.66,-0.421 -2.163,-1.022 -4.148,-1.022 -2.165,0 -3.548,0.961 -3.548,2.946 0,1.203 0.422,1.924 1.263,2.466 0.782,0.48 1.924,0.72 3.367,0.78 l 3.066,0.121 z m 13.047,-10.281 c 2.706,-1.684 6.855,-3.007 11.785,-3.007 6.313,0 12.266,2.465 12.266,9.139 0,10.102 -13.408,8.718 -13.408,11.965 0,1.083 0.901,1.684 3.126,1.684 3.126,0 6.072,-0.902 8.778,-1.984 l 0,7.515 c -2.585,0.902 -5.711,1.444 -9.139,1.444 -7.034,0 -11.604,-3.608 -11.604,-9.079 0,-9.56 13.408,-7.937 13.408,-11.785 0,-1.443 -1.683,-1.924 -4.268,-1.924 -2.646,0 -5.713,0.902 -8.177,2.525 l -2.767,-6.493 z m 28.86,-2.406 9.08,0 0,19.241 c 1.683,1.322 3.907,2.105 5.772,2.105 3.366,0 3.848,-2.527 3.848,-5.473 l 0,-15.873 9.078,0 0,18.58 c 0,8.777 -4.99,10.582 -9.56,10.582 -3.547,0 -6.794,-1.564 -9.138,-3.548 l 0,16.956 -9.08,0 0,-42.57" /><path
       style="fill:#000000;fill-opacity:1;fill-rule:nonzero;stroke:none"
       d="m 116.65625,193.75 c 29.0625,0 58.125,0 87.1875,0 -4.64605,-5.24981 -9.28464,-10.50622 -13.9375,-15.75 20.29167,0 40.58333,0 60.875,0 10.00592,10.99367 20.02158,21.97849 30.03125,32.96875 16.97917,0 33.95833,0 50.9375,0 -14.47917,-16.0625 -28.95833,-32.125 -43.4375,-48.1875 -57.21875,0 -114.4375,0 -171.65625,0 0,10.32292 0,20.64583 0,30.96875 z"
       id="path30"
       inkscape:connector-curvature="0" /><path
       style="fill:#000000;fill-opacity:1;fill-rule:nonzero;stroke:none"
       d="m 242.1875,230.15625 c 57.13542,0 114.27083,0 171.40625,0 0,-10.32292 0,-20.64583 0,-30.96875 -29.02083,0 -58.04167,0 -87.0625,0 4.73921,5.26075 9.49324,10.50818 14.21875,15.78125 -20.5625,0 -41.125,0 -61.6875,0 -10.00655,-11.00351 -20.02148,-21.99942 -30.03125,-33 -16.84375,0 -33.6875,0 -50.53125,0 14.5625,16.0625 29.125,32.125 43.6875,48.1875 z"
       id="path32"
       inkscape:connector-curvature="0" /></g></svg>