<?xml version="1.0" encoding="UTF-8" standalone="no"?>
<!-- Created with Inkscape (http://www.inkscape.org/) -->

<svg
   xmlns:dc="http://purl.org/dc/elements/1.1/"
   xmlns:cc="http://creativecommons.org/ns#"
   xmlns:rdf="http://www.w3.org/1999/02/22-rdf-syntax-ns#"
   xmlns:svg="http://www.w3.org/2000/svg"
   xmlns="http://www.w3.org/2000/svg"
   xmlns:sodipodi="http://sodipodi.sourceforge.net/DTD/sodipodi-0.dtd"
   xmlns:inkscape="http://www.inkscape.org/namespaces/inkscape"
   id="svg2"
   version="1.1"
   inkscape:version="0.48.4 r9939"
   width="665.1625"
   height="496.225"
   xml:space="preserve"
   sodipodi:docname="BCMC_consumer_logo_256px.eps"><metadata
     id="metadata8"><rdf:RDF><cc:Work
         rdf:about=""><dc:format>image/svg+xml</dc:format><dc:type
           rdf:resource="http://purl.org/dc/dcmitype/StillImage" /><dc:title></dc:title></cc:Work></rdf:RDF></metadata><defs
     id="defs6"><clipPath
       clipPathUnits="userSpaceOnUse"
       id="clipPath22"><path
         d="m 705.398,704.871 3912.14,0 0,2560 -3912.14,0 0,-2560 z"
         id="path24" /></clipPath></defs><sodipodi:namedview
     pagecolor="#ffffff"
     bordercolor="#666666"
     borderopacity="1"
     objecttolerance="10"
     gridtolerance="10"
     guidetolerance="10"
     inkscape:pageopacity="0"
     inkscape:pageshadow="2"
     inkscape:window-width="921"
     inkscape:window-height="587"
     id="namedview4"
     showgrid="false"
     inkscape:zoom="0.83228373"
     inkscape:cx="332.58124"
     inkscape:cy="248.1125"
     inkscape:window-x="301"
     inkscape:window-y="126"
     inkscape:window-maximized="0"
     inkscape:current-layer="g10" /><g
     id="g10"
     inkscape:groupmode="layer"
     inkscape:label="ink_ext_XXXXXX"
     transform="matrix(1.25,0,0,-1.25,0,496.225)"><g
       id="g3046"><g
         transform="scale(0.1,0.1)"
         clip-path="url(#clipPath22)"
         id="g20"
         style="fill:#000000"><path
           inkscape:connector-curvature="0"
           id="path26"
           style="fill:#000000;fill-opacity:1;fill-rule:nonzero;stroke:none"
           d="m 1148.7,2500.43 145.59,0 c 96.65,0 144.37,63.62 144.37,122.95 0,44.06 -25.08,83.2 -74.02,96.66 l 0,1.22 c 30.59,17.13 45.88,49.55 45.88,80.14 0,50.77 -39.15,102.16 -126.63,102.16 l -135.19,0 0,-403.13 z m 93.59,75.85 0,89.92 47.11,0 c 34.86,0 55.67,-15.29 55.67,-42.2 0,-32.42 -19.58,-47.72 -64.24,-47.72 l -38.54,0 z m 0,165.78 0,85.03 25.7,0 c 34.86,0 51.38,-19.58 51.38,-43.43 0,-22.02 -16.52,-41.6 -48.93,-41.6 l -28.15,0 z m 428.21,-241.63 75.85,0 c -4.89,15.91 -4.89,39.15 -4.89,56.88 l 0,129.69 c 0,70.36 -36.71,110.11 -126.02,110.11 -45.88,0 -85.03,-11.01 -119.29,-28.13 l 28.76,-58.12 c 20.79,11.01 48.93,17.74 73.41,17.74 31.19,0 50.77,-11.01 50.77,-37.92 l 0,-3.06 -45.88,-1.83 c -29.37,-1.23 -55.67,-6.73 -76.47,-17.75 -29.98,-15.9 -48.33,-39.76 -48.33,-78.91 0,-55.66 41.61,-94.82 98.49,-94.82 36.09,0 61.17,13.46 80.75,30.59 l 12.85,-24.47 z m -21.41,129.08 0,-53.84 c -6.73,-4.28 -22.03,-10.4 -42.21,-10.4 -22.02,0 -36.09,9.79 -36.09,29.98 0,12.23 4.27,19.58 12.84,25.08 7.96,4.89 19.58,7.34 34.26,7.95 l 31.2,1.23 z m 151.09,-129.08 92.36,0 0,195.75 c 17.13,13.46 39.77,21.41 58.73,21.41 34.26,0 39.15,-25.69 39.15,-55.67 l 0,-161.49 92.37,0 0,189.02 c 0,89.31 -50.77,107.66 -97.26,107.66 -35.48,0 -67.9,-14.06 -97.27,-36.7 l -9.17,29.36 -78.91,0 0,-289.34 z m 480.81,-6.12 c 42.21,0 80.75,12.24 105.22,29.97 l -25.7,62.4 c -22.01,-12.23 -41.6,-19.57 -66.06,-19.57 -43.43,0 -72.19,26.91 -72.19,77.07 0,44.65 27.54,80.14 75.86,80.14 28.14,0 50.16,-8.56 71.57,-25.08 l 0,76.47 c -14.68,9.79 -40.98,21.4 -82.58,21.4 -83.81,0 -159.05,-59.95 -159.05,-153.54 0,-85.64 55.06,-149.26 152.93,-149.26 m 279.56,0 c 89.93,0 152.32,63.62 152.32,151.71 0,88.09 -62.39,151.09 -152.32,151.09 -89.92,0 -152.32,-63 -152.32,-151.09 0,-88.09 62.4,-151.71 152.32,-151.71 m 0,72.8 c -40.98,0 -58.12,34.26 -58.12,78.91 0,44.66 17.14,78.3 58.12,78.3 40.99,0 58.11,-33.64 58.11,-78.3 0,-44.65 -17.12,-78.91 -58.11,-78.91 m 197.58,-66.68 92.38,0 0,195.75 c 17.13,13.46 39.76,21.41 58.72,21.41 34.25,0 39.15,-25.69 39.15,-55.67 l 0,-161.49 92.37,0 0,189.02 c 0,89.31 -50.78,107.66 -97.27,107.66 -35.47,0 -67.89,-14.06 -97.26,-36.7 l -9.16,29.36 -78.93,0 0,-289.34 z m 464.92,-6.12 c 29.36,0 69.73,7.34 92.37,22.63 l -25.7,62.4 c -11,-6.73 -26.92,-12.23 -42.21,-12.23 -18.35,0 -26.9,9.17 -26.9,36.7 l 0,115 67.28,0 20.8,70.96 -88.08,0 0,94.82 -92.38,-26.3 0,-68.52 -54.44,0 0,-70.96 54.44,0 0,-139.47 c 0,-52.61 36.7,-85.03 94.82,-85.03 m 304.02,6.12 75.86,0 c -4.89,15.91 -4.89,39.15 -4.89,56.88 l 0,129.69 c 0,70.36 -36.71,110.11 -126.03,110.11 -45.87,0 -85.02,-11.01 -119.28,-28.13 l 28.75,-58.12 c 20.8,11.01 48.94,17.74 73.4,17.74 31.21,0 50.78,-11.01 50.78,-37.92 l 0,-3.06 -45.87,-1.83 c -29.37,-1.23 -55.67,-6.73 -76.48,-17.75 -29.97,-15.9 -48.32,-39.76 -48.32,-78.91 0,-55.66 41.6,-94.82 98.49,-94.82 36.08,0 61.16,13.46 80.75,30.59 l 12.84,-24.47 z m -21.41,129.08 0,-53.84 c -6.72,-4.28 -22.02,-10.4 -42.2,-10.4 -22.03,0 -36.1,9.79 -36.1,29.98 0,12.23 4.28,19.58 12.84,25.08 7.96,4.89 19.59,7.34 34.27,7.95 l 31.19,1.23 z m 293.62,-135.2 c 42.22,0 80.75,12.24 105.22,29.97 l -25.69,62.4 c -22.02,-12.23 -41.6,-19.57 -66.07,-19.57 -43.43,0 -72.19,26.91 -72.19,77.07 0,44.65 27.54,80.14 75.86,80.14 28.14,0 50.17,-8.56 71.58,-25.08 l 0,76.47 c -14.69,9.79 -40.99,21.4 -82.59,21.4 -83.8,0 -159.05,-59.95 -159.05,-153.54 0,-85.64 55.05,-149.26 152.93,-149.26 m 264.27,0 c 29.36,0 69.73,7.34 92.37,22.63 l -25.7,62.4 c -11.01,-6.73 -26.91,-12.23 -42.2,-12.23 -18.36,0 -26.92,9.17 -26.92,36.7 l 0,115 67.28,0 20.8,70.96 -88.08,0 0,94.82 -92.37,-26.3 0,-68.52 -54.44,0 0,-70.96 54.44,0 0,-139.47 c 0,-52.61 36.71,-85.03 94.82,-85.03" /><path
           inkscape:connector-curvature="0"
           id="path28"
           style="fill:#000000;fill-opacity:1;fill-rule:nonzero;stroke:none"
           d="m 1147.85,1072.19 91.99,0 0,205.03 c 0,10.83 0,26.46 -0.6,39.69 l 1.2,0 c 8.42,-15.04 18.04,-27.06 26.46,-38.49 l 73.35,-101 40.29,0 64.33,97.4 c 6.61,10.22 22.85,33.67 26.46,42.09 l 0.6,0 c -0.6,-12.02 -0.6,-28.26 -0.6,-42.69 l 0,-202.03 91.98,0 0,396.24 -83.56,0 -88.99,-135.29 c -12.03,-18.64 -21.65,-35.47 -28.86,-49.9 l -1.2,0 c -9.03,15.63 -18.65,30.06 -30.67,46.89 l -99.21,138.3 -82.97,0 0,-396.24 z m 486.41,0 90.79,0 0,284.4 -90.79,0 0,-284.4 z m 45.7,318.07 c 30.66,0 54.11,24.05 54.11,52.31 0,29.46 -23.45,51.71 -54.11,51.71 -30.67,0 -54.11,-23.45 -54.11,-51.71 0,-29.46 23.44,-52.31 54.11,-52.31 m 81.77,-294.01 c 27.05,-16.84 68.54,-30.07 117.85,-30.07 63.12,0 122.65,24.65 122.65,91.39 0,101.02 -134.08,87.18 -134.08,119.65 0,10.83 9.02,16.84 31.27,16.84 31.26,0 60.72,-9.02 87.78,-19.84 l 0,75.15 c -25.85,9.02 -57.12,14.44 -91.39,14.44 -70.35,0 -116.05,-36.08 -116.05,-90.79 0,-95.6 134.09,-79.37 134.09,-117.85 0,-14.43 -16.84,-19.24 -42.7,-19.24 -26.45,0 -57.11,9.02 -81.77,25.25 l -27.65,-64.93 z m 408.85,-30.07 c 28.86,0 68.55,7.21 90.79,22.25 l -25.25,61.33 c -10.83,-6.62 -26.46,-12.02 -41.49,-12.02 -18.04,0 -26.45,9 -26.45,36.07 l 0,113.04 66.14,0 20.44,69.74 -86.58,0 0,93.2 -90.79,-25.87 0,-67.33 -53.52,0 0,-69.74 53.52,0 0,-137.09 c 0,-51.72 36.07,-83.58 93.19,-83.58 m 383,120.85 0,21.05 c 0,96.81 -49.9,155.73 -135.29,155.73 -89.58,0 -135.88,-67.35 -135.88,-152.73 0,-72.75 40.89,-144.9 153.92,-144.9 37.28,0 73.36,7.21 107.02,27.66 l -26.45,61.33 c -21.04,-12.03 -43.29,-19.24 -73.35,-19.24 -38.48,0 -68.54,16.23 -70.35,51.1 l 180.38,0 z M 2372,1247.16 c 0,25.25 14.43,49.3 44.49,49.3 33.07,0 45.69,-24.64 46.29,-49.3 l -90.78,0 z m 225.47,-174.97 90.79,0 0,195.41 c 19.84,15.03 32.47,19.25 49.3,19.25 7.22,0 22.26,-1.81 38.48,-12.03 l 31.87,74.55 c -14.43,10.22 -32.46,14.44 -46.9,14.44 -31.86,0 -54.72,-16.24 -76.96,-36.08 l -9.61,28.86 -76.97,0 0,-284.4 z m 635.52,99.82 c -29.46,-17.44 -58.31,-29.46 -99.81,-29.46 -74.55,0 -121.45,51.1 -121.45,125.05 0,67.95 37.28,128.67 122.66,128.67 37.28,0 72.75,-9.02 105.82,-26.45 l 0,84.18 c -27.66,11.42 -63.73,18.63 -108.23,18.63 -134.07,0 -218.25,-92.59 -218.25,-206.23 0,-116.05 70.95,-200.22 208.03,-200.22 42.09,0 87.79,7.21 136.5,33.67 l -25.27,72.16 z m 247.12,-99.82 74.56,0 c -4.81,15.64 -4.81,38.49 -4.81,55.93 l 0,127.46 c 0,69.14 -36.08,108.23 -123.87,108.23 -45.09,0 -83.57,-10.83 -117.23,-27.66 l 28.25,-57.13 c 20.45,10.83 48.11,17.44 72.15,17.44 30.66,0 49.9,-10.81 49.9,-37.27 l 0,-3 -45.09,-1.81 c -28.85,-1.21 -54.72,-6.62 -75.15,-17.44 -29.46,-15.63 -47.5,-39.09 -47.5,-77.56 0,-54.71 40.88,-93.2 96.8,-93.2 35.46,0 60.12,13.23 79.36,30.07 l 12.63,-24.06 z m -21.05,126.87 0,-52.91 c -6.6,-4.21 -21.63,-10.22 -41.48,-10.22 -21.65,0 -35.48,9.61 -35.48,29.46 0,12.03 4.22,19.24 12.63,24.66 7.82,4.8 19.24,7.2 33.67,7.8 l 30.66,1.21 z m 130.47,-102.81 c 27.06,-16.84 68.55,-30.07 117.85,-30.07 63.13,0 122.66,24.65 122.66,91.39 0,101.02 -134.08,87.18 -134.08,119.65 0,10.83 9.01,16.84 31.26,16.84 31.26,0 60.72,-9.02 87.78,-19.84 l 0,75.15 c -25.85,9.02 -57.11,14.44 -91.39,14.44 -70.34,0 -116.04,-36.08 -116.04,-90.79 0,-95.6 134.08,-79.37 134.08,-117.85 0,-14.43 -16.83,-19.24 -42.68,-19.24 -26.46,0 -57.13,9.02 -81.77,25.25 l -27.67,-64.93 z m 288.6,-24.06 90.8,0 0,192.41 c 16.83,13.22 39.07,21.05 57.72,21.05 33.66,0 38.48,-25.27 38.48,-54.73 l 0,-158.73 90.78,0 0,185.8 c 0,87.77 -49.9,105.82 -95.6,105.82 -35.47,0 -67.94,-15.64 -91.38,-35.48 l 0,169.56 -90.8,0 0,-425.7" /></g><path
         inkscape:connector-curvature="0"
         id="path30"
         d="m 116.65625,193.75 c 29.0625,0 58.125,0 87.1875,0 -4.64605,-5.24981 -9.28464,-10.50622 -13.9375,-15.75 20.29167,0 40.58333,0 60.875,0 10.00592,10.99367 20.02158,21.97849 30.03125,32.96875 16.97917,0 33.95833,0 50.9375,0 -14.47917,-16.0625 -28.95833,-32.125 -43.4375,-48.1875 -57.21875,0 -114.4375,0 -171.65625,0 0,10.32292 0,20.64583 0,30.96875 z"
         style="fill:#000000;fill-opacity:1;fill-rule:nonzero;stroke:none" /><path
         inkscape:connector-curvature="0"
         id="path32"
         d="m 242.1875,230.15625 c 57.13542,0 114.27083,0 171.40625,0 0,-10.32292 0,-20.64583 0,-30.96875 -29.02083,0 -58.04167,0 -87.0625,0 4.73921,5.26075 9.49324,10.50818 14.21875,15.78125 -20.5625,0 -41.125,0 -61.6875,0 -10.00655,-11.00351 -20.02148,-21.99942 -30.03125,-33 -16.84375,0 -33.6875,0 -50.53125,0 14.5625,16.0625 29.125,32.125 43.6875,48.1875 z"
         style="fill:#000000;fill-opacity:1;fill-rule:nonzero;stroke:none" /></g></g></svg>